<svg viewBox="0 0 22 22" fill="currentColor" xmlns="http://www.w3.org/2000/svg">
<path d="M10.1538 2.15385C10.4554 2.15385 10.6923 2.39077 10.6923 2.69231V4.84615H17.1538V11.3077H19.3077C19.6092 11.3077 19.8462 11.5446 19.8462 11.8462C19.8462 12.1477 19.6092 12.3846 19.3077 12.3846H17.1538V18.8462H14.8708C14.1385 16.9615 12.2969 15.6154 10.1538 15.6154C8.01077 15.6154 6.16923 16.9615 5.43692 18.8462H3.15385V16.5631C5.03846 15.8308 6.38462 13.9892 6.38462 11.8462C6.38462 9.70308 5.04923 7.86154 3.16462 7.12923L3.15385 4.84615H9.61539V2.69231C9.61539 2.39077 9.85231 2.15385 10.1538 2.15385ZM10.1538 0C8.66769 0 7.46154 1.20615 7.46154 2.69231H3.15385C1.96923 2.69231 1.01077 3.66154 1.01077 4.84615V8.93846H1.32308C2.92769 8.93846 4.23077 10.2415 4.23077 11.8462C4.23077 13.4508 2.92769 14.7538 1.32308 14.7538H1V18.8462C1 20.0308 1.96923 21 3.15385 21H7.24615V20.6769C7.24615 19.0723 8.54923 17.7692 10.1538 17.7692C11.7585 17.7692 13.0615 19.0723 13.0615 20.6769V21H17.1538C18.3385 21 19.3077 20.0308 19.3077 18.8462V14.5385C20.7938 14.5385 22 13.3323 22 11.8462C22 10.36 20.7938 9.15385 19.3077 9.15385V4.84615C19.3077 3.66154 18.3385 2.69231 17.1538 2.69231H12.8462C12.8462 1.20615 11.64 0 10.1538 0Z" />
</svg>
